<?xml version="1.0" encoding="UTF-8" standalone="no"?><svg xmlns="http://www.w3.org/2000/svg" xmlns:xlink="http://www.w3.org/1999/xlink" contentScriptType="text/ecmascript" fill="#000000" width="1529" zoomAndPan="magnify" contentStyleType="text/css" viewBox="0.0 -5.4 1529.0 380.7" height="380.7" data-name="Layer 1" preserveAspectRatio="xMidYMid meet" version="1"><g id="change1_1"><path fill="#ffffff" d="M1508,692.1V566.35h0v39.76c-5.34,1.53-18.32,5.53-27.17,2.2-18.79-12.19-6.39-9-21.42-3.33-19.65-5.82-22.89,8.22-40.75.28-19.8.65,18-5.87-20.11-3.32-38.18,9.77-37.61-24.18-53.56,7.16-47.56,21.68-33.06,8.67-68.61,3.1-8.56-17.07-11.92-4-29.12-.71-16.83-4.8-16.63-5.69-34.2.71-10.25-6.25-22.47,8.25-28.13,1.91-12.76,1.29-20.44-6.35-29.16-11.1-10.52-31.06-18.24-11.1-30.21-13.71-13.3-3.34-26-2.88-39.62-3.19-12.93-7-25.88,2.53-38.83-.2-12.94,1.62-25.89-.09-38.81.07-12.73.34-24.68,14.74-37.39,3.37-17.24-12.93-34.48-2.88-51.72-.08-20.11-12-37-15.53-55.68,5.58-10.46,2-20.63,8.1-31.1,11.22-8.22,3.77-15.22,3.89-23.39,2.73-12-8.51-21.94,26.34-34.31,12.44-22.63,4.82-45.75,22.36-67.62-4.19-11.77-9.93-23.64,9.68-35.68-5.72-10.57-4.77-21.25,16.1-31.83.23-11.86,27.54-22.79-16.39-34.82-3.28-8.88-4-15.22-5.75-23-4.57-20.21-5-42.85-9.78-64.77-22.2-13.69,10.5-25.87-10.33-41-11.36-5.39-.72-11.41-2.51-17.55-3.8H437.65a24,24,0,0,0-10.36,7c-9.5,18.59-17.8,31.23-28.05,9.67-5,.32-6.07,2-10.95,3.22-4.28,7.87-8.23-16.71-12.54.45-12.71-8.41-21.27,10.27-32.13,21.88-9.25-2-16.67,14.16-27.34,9.27-23.87-2.65-42.82,12.48-65.85,14.43-2.8,23.46-7,6.3-17.49-.67,2-14-8.77-9.15-9.31-7.48-.51-7.16-9.07,1.31-12.31,3.42-8.73-5-1.23,11.49-16.16-.16-1.93-9.72-15.08-9.5-31-.59-6.79.06-5.44-11.8-15.67-9.48-7-2.67-2.19,6.8-20.58-12.62-4.55-4.37-6.34-7.37-6.8-9.33a30.93,30.93,0,0,1-6.8,2.76c-.14-.58-20.36-9.23-10.54-3.28-9.09,1,6.79-11.6-6.89-4.76-17.35-13.42-11-1.31-20.49-3.17.61-26-15.16-8.09-36.59-4-5.42,2-12.21-15.12-32.9,0C-1,587.79-11,589-21,588.24V566.35h0v79.16a31.17,31.17,0,0,1,0,7.9v64.51a10,10,0,0,0,1.75,1.76A20.88,20.88,0,0,1-21,723.31v11.27a8.3,8.3,0,0,0,1,.19c1.45.17.73.9-1,2V874.1c10,.75,20-.45,27.92-5.32,20.69-15.11,27.48,2,32.9,0,21.43-4.13,37.2-22,36.59,4,9.51,1.86,3.14-10.26,20.49,3.16,13.68-6.83-2.2,5.76,6.89,4.77-9.82-5.95,10.4,2.7,10.54,3.28a31.44,31.44,0,0,0,6.8-2.76c.46,2,2.25,5,6.8,9.32,18.39,19.43,13.56,10,20.58,12.62,10.23-2.31,8.88,9.54,15.67,9.49,15.9-8.92,29-9.14,31,.58,14.93,11.66,7.43-4.8,16.16.17,3.24-2.11,11.8-10.58,12.31-3.42.54-1.67,11.27-6.56,9.31,7.48,10.49,7,14.69,24.12,17.49.67,23-2,42-17.08,65.85-14.43,10.67,4.89,18.09-11.25,27.34-9.27,10.86-11.61,19.42-30.29,32.13-21.89,4.31-17.16,8.26,7.42,12.54-.45,4.88-1.23,6-2.9,10.95-3.22,10.25,21.57,18.55,8.93,28.05-9.66C441.15,843.64,461,854,476,856c15.09,1,27.27,21.85,41,11.36,21.92,12.42,44.56,17.19,64.77,22.19,7.79-1.17,14.13.53,23,4.58,12-13.12,23,30.82,34.82,3.28,10.58,15.87,21.26-5,31.83-.24,12,15.4,23.91-4.2,35.68,5.72,21.87,26.55,45,9,67.62,4.2,12.37,13.9,22.35-21,34.31-12.45,8.17,1.17,15.17,1.05,23.39-2.72,10.47-3.13,20.64-9.23,31.1-11.22,18.68-21.11,35.57-17.62,55.68-5.58,17.24-2.8,34.48-12.85,51.72.07,12.71,11.37,24.66-3,37.39-3.36,12.92-.16,25.87,1.55,38.81-.08,13,2.74,25.9-6.74,38.83.21,13.65.31,26.32-.15,39.62,3.19,12,2.61,19.69-17.35,30.21,13.71,8.72,4.75,16.4,12.38,29.16,11.09,5.66,6.35,17.88-8.16,28.13-1.91,17.57-6.39,17.37-5.5,34.2-.7,17.2-3.33,20.56-16.36,29.12.7,35.55,5.58,21,18.58,68.61-3.1,16-31.34,15.38,2.62,53.56-7.16,38.07-2.55.31,4,20.11,3.33,17.86,7.93,21.1-6.1,40.75-.28,15-5.71,2.63-8.86,21.42,3.32,8.85,3.34,21.83-.67,27.17-2.19V698.06C1500,695,1499.38,693.35,1508,692.1Z" transform="translate(21 -566.35)"/></g></svg>